<?xml version="1.0" encoding="utf-8"?>
<svg viewBox="0 0 363.7 134.619"
    xmlns="http://www.w3.org/2000/svg">
    <defs>
        <style>.cls-1{fill:#2b405d;}.cls-2{fill:#ff6a00;}</style>
    </defs>
    <g transform="matrix(2.6571540832519527, 0, 0, -2.6571540832519527, -317.0060166866483, 807.1571775549227)" style="">
        <path d="M 251.931 303.239 L 243.405 301.798 C 242.732 301.964 242.009 302.103 241.245 302.212 C 240.293 302.349 239.312 302.424 238.323 302.439 L 235.3 302.289 C 234.914 302.241 234.533 302.183 234.158 302.114 L 214.178 299.081 L 214.178 299.083 L 196.539 296.403 L 196.554 296.392 L 190.278 295.439 L 190.281 295.459 L 182.837 294.32 L 182.837 294.325 L 176.814 293.409 L 163.825 291.437 L 164.77 296.762 L 164.767 296.762 L 165.537 301.105 L 154.295 299.386 L 154.296 299.394 L 127.162 295.238 L 124.356 279.439 L 136.743 285.831 L 136.245 283.034 L 128.09 278.313 L 134.945 275.72 L 133.787 269.214 L 119.787 258.83 L 127.489 259.998 L 136.071 253.63 L 227.207 267.206 L 233.455 275.958 C 236.344 276.286 238.847 277.149 240.903 278.54 C 243.525 280.314 245.104 282.617 245.596 285.382 C 245.988 287.578 245.63 289.453 244.527 290.963 C 244.166 291.454 243.728 291.897 243.216 292.29 L 244.919 294.607 L 251.927 303.24 L 251.931 303.239 Z" fill="#f60"/>
        <path d="M 247.749 300.8 L 243.331 300.05 C 242.62 300.24 241.838 300.398 241.002 300.518 C 239.648 300.711 238.252 300.772 236.813 300.7 C 235.15 300.614 232.592 300.144 232.592 300.144 L 212.713 297.129 L 212.733 297.116 L 211.949 296.997 L 211.952 297.015 L 201.195 295.379 L 206.213 292.069 L 205.288 286.885 L 202.859 285.411 L 200.617 286.349 L 199.156 295.055 L 191.001 293.818 L 186.695 285.029 L 188.181 293.407 L 180.772 292.271 L 180.773 292.281 L 170.556 290.707 L 170.591 290.734 L 161.724 289.387 L 162.73 295.051 L 162.728 295.051 L 163.438 299.051 L 152.052 297.312 L 152.055 297.323 L 128.635 293.731 L 126.646 282.542 L 136.871 287.819 L 138.89 288.126 L 137.791 281.951 L 132.066 278.636 L 136.879 276.817 L 135.352 268.244 L 126.329 261.551 L 153.378 265.661 L 165.778 267.544 L 175.734 269.054 L 175.716 269.039 L 188.058 270.912 L 213.977 274.862 L 213.973 274.847 L 222.375 276.123 L 222.823 278.648 L 224.344 278.776 C 225.11 278.391 225.96 278.102 227.225 277.786 C 228.028 277.587 228.966 277.494 230.176 277.494 L 230.178 277.494 C 230.699 277.494 231.272 277.509 231.98 277.545 C 235.151 277.71 237.831 278.521 239.95 279.953 C 242.173 281.457 243.508 283.383 243.917 285.679 C 244.223 287.395 243.969 288.831 243.155 289.945 C 242.604 290.695 241.79 291.309 240.723 291.781 L 243.361 295.37 L 243.336 295.361 L 247.75 300.801 L 247.749 300.8 Z M 215.346 295.393 L 217.395 294.041 L 216.902 291.268 L 215.346 295.392 L 215.346 295.393 Z M 237.243 294.5 C 238.028 294.472 238.79 294.339 239.555 294.097 C 239.578 294.091 239.599 294.082 239.621 294.075 L 236.224 292.9 C 235.811 292.965 235.389 293.03 234.955 293.097 C 234.064 293.236 233.627 293.376 233.432 293.455 C 233.456 293.51 233.505 293.571 233.574 293.636 C 233.763 293.811 233.97 293.943 234.229 294.046 C 234.574 294.191 234.926 294.296 235.271 294.358 C 235.675 294.428 236.071 294.475 236.449 294.494 C 236.718 294.508 236.981 294.51 237.243 294.501 L 237.243 294.5 Z M 225.187 291.925 C 225.125 290.796 225.332 289.795 225.803 288.933 L 224.734 289.382 L 225.187 291.925 Z M 153.346 290.336 L 158.643 288.918 L 150.713 287.711 L 155.404 284.619 L 154.44 279.205 L 150.285 276.683 L 153.735 275.243 L 152.78 269.877 L 149.979 267.699 L 146.938 269.524 L 148.466 278.121 L 154.19 281.433 L 149.38 283.254 L 150.566 289.911 L 153.346 290.336 Z M 227.157 287.389 C 227.314 287.272 227.481 287.16 227.656 287.052 L 225.94 284.771 L 223.432 282.072 L 224.045 285.504 L 227.157 287.389 Z M 181.115 286.616 L 186.659 284.955 L 186.495 284.619 L 181.402 281.53 L 179.104 282.494 L 179.801 286.414 L 181.115 286.616 Z M 164.405 285.922 L 163.546 281.1 L 170.863 285.047 L 171.405 285.13 L 170.791 281.686 L 166.635 279.169 L 170.087 277.725 L 169.132 272.358 L 164.24 268.556 L 161.084 270.636 L 162.046 276.05 L 166.202 278.571 L 162.752 280.011 L 163.707 285.378 L 164.405 285.922 Z M 232.477 285.546 C 232.512 285.541 232.548 285.535 232.585 285.53 C 233.43 285.418 234.178 285.3 234.879 285.168 C 235.399 285.072 235.646 284.945 235.748 284.877 C 235.725 284.78 235.688 284.673 235.623 284.619 C 235.422 284.452 235.16 284.3 234.862 284.175 C 234.602 284.071 234.243 283.984 233.82 283.921 C 233.334 283.848 232.944 283.802 232.66 283.789 C 231.56 283.732 230.435 283.875 229.305 284.213 C 229.12 284.268 228.952 284.326 228.798 284.382 L 232.477 285.546 Z M 203.463 283.485 L 204.599 283.008 L 203.627 277.536 L 202.496 276.658 L 202.199 276.929 L 201.318 282.183 L 203.463 283.485 Z M 212.438 281.161 L 213.979 277.083 L 211.952 278.418 L 212.438 281.161 Z M 182.285 280.889 L 184.262 280.061 L 181.404 274.228 L 179.034 272.066 L 177.437 273.119 L 178.399 278.533 L 182.285 280.889 Z M 193.369 275.993 L 193.402 275.789 L 190.624 273.253 L 189.174 274.561 L 189.594 275.418 L 193.369 275.993 Z M 226.118 273.902 L 224.778 273.702 L 224.209 271.111 L 224.196 271.11 L 222.838 273.411 L 221.249 273.172 L 220.331 269.035 L 221.67 269.233 L 222.246 271.85 L 222.26 271.852 L 223.673 269.532 L 225.209 269.76 L 226.118 273.902 Z M 218.598 272.813 C 218.462 272.821 218.32 272.819 218.171 272.811 C 218.001 272.802 217.824 272.782 217.642 272.755 C 216.182 272.535 214.841 271.872 214.457 270.16 C 214.07 268.445 215.198 268.149 216.66 268.366 C 218.123 268.583 219.468 269.25 219.849 270.966 C 220.141 272.278 219.547 272.758 218.598 272.813 Z M 214.407 272.147 L 210.009 271.488 L 209.799 270.564 L 211.31 270.791 L 210.584 267.588 L 211.96 267.791 L 212.685 270.997 L 214.199 271.224 L 214.407 272.147 Z M 217.696 271.85 C 218.267 271.85 218.556 271.503 218.387 270.747 C 218.194 269.878 217.611 269.404 216.867 269.294 C 216.131 269.185 215.721 269.51 215.917 270.378 C 216.11 271.24 216.697 271.72 217.435 271.83 C 217.528 271.844 217.615 271.85 217.696 271.85 Z M 208.418 271.23 C 208.314 271.228 208.2 271.218 208.074 271.199 L 204.785 270.705 L 203.835 266.585 L 205.208 266.788 L 205.523 268.164 L 206.779 268.35 C 207.125 268.403 207.312 268.319 207.163 267.671 C 207.121 267.48 207.069 267.239 207.102 267.071 L 208.61 267.294 C 208.485 267.477 208.52 267.733 208.643 268.539 C 208.71 268.978 208.554 269.156 208.316 269.205 L 208.319 269.216 C 208.709 269.365 209.066 269.708 209.188 270.257 C 209.327 270.857 209.142 271.244 208.418 271.23 Z M 203.896 270.571 L 199.799 269.957 L 198.841 265.843 L 202.946 266.452 L 203.152 267.343 L 200.413 266.933 L 200.585 267.678 L 203.152 268.061 L 203.349 268.914 L 200.782 268.532 L 200.955 269.275 L 203.693 269.685 L 203.896 270.571 Z M 207.472 270.186 C 207.65 270.154 207.717 270.021 207.671 269.818 C 207.607 269.535 207.389 269.335 207.054 269.285 L 205.737 269.088 L 205.943 269.986 L 207.258 270.185 C 207.342 270.197 207.413 270.197 207.472 270.186 Z M 196.5 269.463 L 195.141 269.26 L 194.174 265.149 L 198.027 265.721 L 198.252 266.678 L 195.76 266.307 L 196.5 269.463 Z M 191.854 268.766 L 190.499 268.563 L 189.524 264.458 L 193.364 265.028 L 193.588 265.985 L 191.107 265.616 L 191.853 268.766 L 191.854 268.766 Z M 189.425 268.402 L 188.074 268.199 L 187.493 265.772 C 187.334 265.104 186.974 264.844 186.355 264.753 C 185.735 264.66 185.481 264.828 185.641 265.494 L 186.221 267.922 L 184.872 267.719 L 184.235 265.069 C 183.962 263.936 184.697 263.619 186.135 263.833 C 187.575 264.047 188.524 264.615 188.793 265.749 L 189.425 268.402 Z M 184.171 267.613 L 180.319 267.036 L 179.324 262.941 L 180.671 263.143 L 181.057 264.733 L 183.391 265.082 L 183.604 265.966 L 181.271 265.616 L 181.441 266.322 L 183.95 266.697 L 184.171 267.613 Z M 176.946 266.532 L 172.921 265.927 L 171.913 261.841 L 175.946 262.441 L 176.16 263.325 L 173.471 262.924 L 173.654 263.663 L 176.174 264.038 L 176.382 264.886 L 173.861 264.51 L 174.043 265.249 L 176.73 265.65 L 176.946 266.532 Z M 172.214 265.822 L 167.938 265.18 L 167.711 264.268 L 169.18 264.488 L 168.393 261.318 L 169.728 261.516 L 170.516 264.689 L 171.988 264.907 L 172.214 265.822 Z M 166.382 264.947 L 164.755 264.703 L 161.996 260.367 L 163.424 260.578 L 163.83 261.278 L 165.58 261.539 L 165.654 260.911 L 167.085 261.124 L 166.382 264.947 Z M 163.185 264.469 L 158.935 263.832 L 158.704 262.921 L 160.164 263.138 L 159.364 259.977 L 160.693 260.175 L 161.493 263.338 L 162.955 263.556 L 163.185 264.469 Z M 165.308 263.799 L 165.477 262.339 L 164.355 262.172 L 165.297 263.797 L 165.308 263.799 Z M 156.933 263.585 C 156.66 263.59 156.341 263.563 155.981 263.51 C 154.241 263.248 153.726 262.444 153.589 261.908 C 153.434 261.305 153.643 260.931 154.428 260.927 L 155.7 260.919 C 156.142 260.913 156.29 260.864 156.236 260.647 C 156.147 260.3 155.765 260.167 155.43 260.116 C 154.741 260.014 154.623 260.184 154.67 260.486 L 153.1 260.252 C 152.887 259.13 153.797 259.028 155.145 259.228 C 155.691 259.309 157.445 259.582 157.795 260.963 C 157.978 261.683 157.61 261.924 156.903 261.944 C 156.531 261.955 155.552 261.955 155.231 261.963 C 155.042 261.967 154.968 262.033 155.003 262.167 C 155.072 262.436 155.349 262.603 155.794 262.67 C 156.399 262.76 156.568 262.601 156.535 262.327 L 158.038 262.552 C 158.159 263.264 157.752 263.568 156.933 263.584 L 156.933 263.585 Z M 148.447 262.258 L 147.13 262.061 L 146.074 258.002 L 149.805 258.557 L 150.049 259.502 L 147.638 259.144 L 148.447 262.258 Z M 144.891 261.725 L 143.286 261.485 L 140.515 257.177 L 141.921 257.386 L 142.33 258.078 L 144.054 258.335 L 144.119 257.711 L 145.53 257.921 L 144.891 261.725 Z M 139.666 260.997 C 139.413 261.006 139.131 260.981 138.832 260.936 C 137.13 260.682 136.158 259.775 135.799 258.421 C 135.428 257.026 136.035 256.39 137.696 256.638 C 139.556 256.913 140.239 257.795 140.629 258.694 L 139.177 258.478 C 138.965 257.993 138.532 257.635 137.943 257.547 C 137.095 257.421 137.005 257.958 137.182 258.627 C 137.358 259.297 137.779 259.91 138.597 260.032 C 139.341 260.143 139.403 259.684 139.404 259.407 L 140.863 259.624 C 140.925 260.641 140.425 260.971 139.666 260.997 Z M 143.819 260.585 L 143.965 259.132 L 142.862 258.967 L 143.808 260.582 L 143.819 260.585 Z" fill="#fff"/>
        <path d="M 237.891 299.439 C 237.558 299.437 237.221 299.428 236.883 299.411 C 234.187 299.271 231.877 298.576 229.955 297.323 C 228.032 296.071 226.907 294.52 226.578 292.678 C 226.336 291.305 226.511 290.176 227.105 289.289 C 227.595 288.556 228.444 287.976 229.644 287.542 L 228.133 285.531 L 232.388 286.878 C 232.514 286.857 232.63 286.833 232.758 286.817 C 233.589 286.706 234.376 286.582 235.117 286.442 C 235.821 286.314 236.338 286.1 236.664 285.806 C 236.99 285.51 237.114 285.146 237.036 284.712 C 236.953 284.243 236.759 283.879 236.453 283.626 C 236.149 283.374 235.779 283.158 235.347 282.978 C 234.994 282.836 234.55 282.724 234.016 282.644 C 233.483 282.565 233.053 282.516 232.731 282.5 C 231.478 282.436 230.217 282.593 228.941 282.976 C 227.57 283.386 226.892 283.894 226.892 283.894 L 223.261 279.986 L 224.616 280.1 C 225.364 279.684 226.159 279.388 227.539 279.044 C 228.716 278.751 230.212 278.752 231.914 278.839 C 234.858 278.993 237.297 279.722 239.228 281.028 C 241.16 282.335 242.299 283.96 242.646 285.908 C 242.889 287.274 242.711 288.364 242.114 289.181 C 241.516 289.995 240.475 290.612 238.993 291.028 C 238.87 291.06 238.751 291.084 238.63 291.115 L 239.863 292.792 L 236.347 291.575 C 235.833 291.656 235.308 291.739 234.76 291.822 C 233.654 291.994 232.916 292.209 232.552 292.467 C 232.19 292.724 232.052 293.114 232.144 293.636 C 232.208 293.983 232.391 294.3 232.697 294.587 C 233.004 294.871 233.348 295.09 233.73 295.242 C 234.163 295.423 234.605 295.554 235.053 295.634 C 235.5 295.713 235.944 295.766 236.386 295.789 C 237.638 295.853 238.818 295.692 239.95 295.334 C 240.862 295.043 241.241 294.842 241.241 294.842 L 241.272 294.881 L 241.258 294.853 L 244.586 298.953 L 243.268 298.731 C 242.549 298.937 241.736 299.109 240.824 299.239 C 239.867 299.376 238.89 299.442 237.891 299.439 L 237.891 299.439 Z M 227.886 298.126 L 222.294 297.276 L 222.292 297.262 L 221.83 297.194 L 221.835 297.206 L 216.243 296.358 L 218.822 294.656 L 217.353 286.412 L 213.758 295.945 L 213.763 295.967 L 210.311 295.443 L 210.315 295.457 L 204.722 294.607 L 207.64 292.684 L 206.465 286.084 L 204.074 284.635 L 206.058 283.806 L 204.818 276.824 L 202.44 274.974 L 201.002 276.271 L 199.899 282.837 L 202.255 284.265 L 199.465 285.432 L 198.094 293.587 L 191.869 292.643 L 187.494 283.712 L 183.986 281.585 L 186.032 280.73 L 182.461 273.441 L 179.743 270.96 L 189.585 272.455 L 187.588 274.257 L 188.735 276.599 L 194.44 277.465 L 194.801 275.31 L 192.083 272.833 L 202.979 274.488 L 202.968 274.501 L 204.443 274.724 L 204.44 274.712 L 210.133 275.574 L 210.136 275.588 L 213.196 276.052 L 210.532 277.808 L 211.993 286.023 L 215.59 276.492 L 215.572 276.399 L 221.268 277.264 L 222.876 286.309 L 225.268 287.759 L 223.283 288.59 L 224.513 295.5 L 227.886 298.126 L 227.886 298.126 Z M 161.852 297.503 L 150.291 295.736 L 150.294 295.748 L 141.322 294.386 L 141.316 294.362 L 129.75 292.595 L 129.096 288.886 L 129.091 288.886 L 128.38 284.894 L 136.469 289.067 L 140.483 289.681 L 138.961 281.135 L 135.077 278.882 L 138.342 277.649 L 136.539 267.512 L 131.283 263.615 L 149.633 266.403 L 145.511 268.874 L 147.303 278.942 L 151.188 281.192 L 147.922 282.427 L 149.458 291.052 L 153.422 291.66 L 160.48 289.768 L 161.191 293.76 L 161.189 293.76 L 161.852 297.502 L 161.852 297.503 Z M 186.596 291.856 L 179.258 290.733 L 179.261 290.742 L 173.568 289.878 L 173.564 289.861 L 166.225 288.737 L 165.779 286.222 L 165.777 286.222 L 165.294 283.515 L 170.45 286.297 L 173 286.686 L 171.966 280.886 L 169.486 279.384 L 171.547 278.522 L 170.322 271.647 L 166.963 269.032 L 178.609 270.803 L 176.018 272.509 L 177.233 279.337 L 179.712 280.84 L 177.654 281.703 L 178.694 287.556 L 181.212 287.942 L 185.666 286.607 L 186.148 289.315 L 186.596 291.856 L 186.596 291.856 Z M 165.885 288.711 L 154.239 286.942 L 156.83 285.233 L 155.616 278.406 L 153.136 276.901 L 155.194 276.04 L 153.97 269.164 L 150.611 266.551 L 162.258 268.319 L 159.664 270.028 L 160.88 276.856 L 163.36 278.359 L 161.3 279.22 L 162.525 286.1 L 165.885 288.711 L 165.885 288.711 Z M 193.093 285.489 L 193.954 280.364 L 190.308 279.809 L 193.093 285.489 L 193.093 285.489 Z" fill="#036"/>
    </g>
</svg>